<?xml version="1.0" encoding="utf-8"?>
<!-- Generator: Adobe Illustrator 24.0.1, SVG Export Plug-In . SVG Version: 6.00 Build 0)  -->
<svg version="1.1" id="Layer_1" xmlns="http://www.w3.org/2000/svg" xmlns:xlink="http://www.w3.org/1999/xlink" x="0px" y="0px"
	 viewBox="0 0 50 50" style="enable-background:new 0 0 50 50;" xml:space="preserve">
<style type="text/css">
	.st0{fill:#FF2585;}
</style>
<path class="st0" d="M36.5,0H13.5C6.1,0,0,6.1,0,13.5v22.9C0,43.9,6.1,50,13.5,50h22.9C43.9,50,50,43.9,50,36.5V13.5
	C50,6.1,43.9,0,36.5,0z M47.1,36.5c0,5.8-4.8,10.6-10.6,10.6H13.5c-5.8,0-10.6-4.8-10.6-10.6V13.5c0-5.8,4.8-10.6,10.6-10.6h22.9
	c5.8,0,10.6,4.8,10.6,10.6V36.5z"/>
<path class="st0" d="M21.4,24.2c1.6-0.7,2.4-2.2,2.4-4.5c0-3.3-1.9-5-5.7-5h-5.5c-0.4,0-0.8,0.1-1.1,0.3c-0.3,0.2-0.5,0.5-0.5,0.8
	v18.4c0,0.3,0.2,0.6,0.5,0.8c0.3,0.2,0.7,0.3,1.2,0.3h6c1.7,0,3.1-0.5,4.1-1.4c1-1,1.5-2.5,1.5-4.6v-0.6c0-1.3-0.2-2.3-0.7-3
	C23.1,25.2,22.4,24.6,21.4,24.2z M14.7,18h3.1c0.7,0,1.3,0.2,1.7,0.6c0.4,0.4,0.6,1,0.6,1.7c0,0.8-0.2,1.4-0.6,1.8
	c-0.4,0.4-0.9,0.7-1.7,0.7h-3.2V18z M20.6,29.1c0,2.1-0.9,3.1-2.7,3.1h-3.2v-6.5h3.2c0.9,0,1.6,0.2,2.1,0.7c0.5,0.5,0.7,1.2,0.7,2.3
	V29.1z"/>
<path class="st0" d="M37.3,29.7c0.4,0,0.7,0,1-0.1c0.2,0,0.5-0.1,0.8-0.3c0.3-0.1,0.5-0.4,0.7-0.8c0.1-0.4,0.2-0.8,0.2-1.4
	c0-1.5-0.6-2.8-1.7-3.8c-1.1-1-2.5-1.5-4.1-1.5c-1.7,0-3.2,0.6-4.4,1.7c-1.2,1.1-1.8,2.4-1.8,4v2.4c0,1.7,0.6,3.1,1.9,4.2
	c1.3,1.1,2.9,1.6,4.9,1.6c1.4,0,2.6-0.3,3.6-0.8c1-0.5,1.4-1,1.4-1.6c0-0.3-0.1-0.7-0.4-1.1c-0.3-0.4-0.6-0.6-1-0.6
	c-0.2,0-0.7,0.2-1.4,0.5c-0.7,0.4-1.4,0.5-2.1,0.5c-1,0-1.8-0.3-2.4-0.8c-0.6-0.5-0.9-1.2-0.9-2v-0.4H37.3z M31.5,26.8
	c0-0.6,0.2-1.1,0.7-1.5c0.5-0.4,1.1-0.6,1.7-0.6c0.7,0,1.3,0.2,1.8,0.6c0.5,0.4,0.7,0.9,0.7,1.5c0,0.3-0.1,0.5-0.2,0.6
	c-0.1,0.1-0.3,0.1-0.6,0.1h-4.1V26.8z"/>
<path class="st0" d="M38.5,17.4h-9.2c-0.8,0-1.5,0.7-1.5,1.5c0,0.8,0.7,1.5,1.5,1.5h9.2c0.8,0,1.5-0.7,1.5-1.5
	C40,18,39.3,17.4,38.5,17.4z"/>
</svg>
