<?xml version="1.0" encoding="utf-8"?>
<!-- Generator: Adobe Illustrator 24.0.1, SVG Export Plug-In . SVG Version: 6.00 Build 0)  -->
<svg version="1.1" id="Capa_1" xmlns="http://www.w3.org/2000/svg" xmlns:xlink="http://www.w3.org/1999/xlink" x="0px" y="0px"
	 viewBox="0 0 50 50" style="enable-background:new 0 0 50 50;" xml:space="preserve">
<style type="text/css">
	.st0{fill:#FF2585;}
</style>
<g>
	<g>
		<path class="st0" d="M34.4-0.1H15.6C6.9-0.1-0.1,7-0.1,15.6v18.8c0,8.7,7,15.7,15.7,15.7h18.8c8.7,0,15.7-7,15.7-15.7V15.6
			C50.1,7,43.1-0.1,34.4-0.1z M45.4,34.5c0,6.1-4.9,11-11,11H15.6c-6.1,0-11-4.9-11-11V15.6c0-6.1,4.9-11,11-11h18.8
			c6.1,0,11,4.9,11,11V34.5z"/>
	</g>
</g>
<g>
	<g>
		<path class="st0" d="M25,12.5c-6.9,0-12.6,5.6-12.6,12.6S18.1,37.6,25,37.6S37.6,32,37.6,25.1S31.9,12.5,25,12.5z M25,32.9
			c-4.3,0-7.9-3.5-7.9-7.9c0-4.3,3.5-7.9,7.9-7.9s7.9,3.5,7.9,7.9C32.9,29.4,29.3,32.9,25,32.9z"/>
	</g>
</g>
<g>
	<g>
		<circle class="st0" cx="38.5" cy="11.6" r="1.7"/>
	</g>
</g>
</svg>
