<?xml version="1.0" encoding="utf-8"?>
<!-- Generator: Adobe Illustrator 24.0.1, SVG Export Plug-In . SVG Version: 6.00 Build 0)  -->
<svg version="1.1" id="Layer_1" xmlns="http://www.w3.org/2000/svg" xmlns:xlink="http://www.w3.org/1999/xlink" x="0px" y="0px"
	 viewBox="0 0 50 50" style="enable-background:new 0 0 50 50;" xml:space="preserve">
<style type="text/css">
	.st0{fill:#FF2585;}
</style>
<path class="st0" d="M15.6,41.3H8.8V19.2h6.8V41.3z M16.3,12.2c0-2.2-1.8-4-4-4c-2.2,0-4,1.8-4,4c0,2.2,1.8,4,4,4
	C14.5,16.2,16.3,14.4,16.3,12.2z M41.2,29.2c0-5.9-1.3-10.3-8.2-10.3c-3.3,0-5.6,1.7-6.5,3.4h0v-3h-6.6v22.1h6.6v-11
	c0-2.9,0.7-5.6,4.3-5.6c3.5,0,3.6,3.3,3.6,5.8v10.8h6.7V29.2z M50,44.1V5.9C50,2.6,47.4,0,44.1,0H5.9C2.6,0,0,2.6,0,5.9v38.3
	C0,47.4,2.6,50,5.9,50h38.3C47.4,50,50,47.4,50,44.1z M44.1,3.9c1.1,0,2,0.9,2,2v38.3c0,1.1-0.9,2-2,2H5.9c-1.1,0-2-0.9-2-2V5.9
	c0-1.1,0.9-2,2-2H44.1z"/>
</svg>
